{
    "asset" : {
        "generator" : "Khronos glTF Blender I/O v1.5.17",
        "version" : "2.0"
    },
    "scene" : 0,
    "scenes" : [
        {
            "name" : "Scene",
            "nodes" : [
                0
            ]
        }
    ],
    "nodes" : [
        {
            "mesh" : 0,
            "name" : "Cube.015"
        }
    ],
    "materials" : [
        {
            "doubleSided" : true,
            "name" : "stone",
            "pbrMetallicRoughness" : {
                "baseColorFactor" : [
                    0.5382243990898132,
                    0.5382243990898132,
                    0.5382243990898132,
                    1
                ],
                "metallicFactor" : 0,
                "roughnessFactor" : 0.5
            }
        },
        {
            "doubleSided" : true,
            "name" : "brick",
            "pbrMetallicRoughness" : {
                "baseColorTexture" : {
                    "index" : 0
                },
                "metallicFactor" : 0,
                "roughnessFactor" : 0.5
            }
        },
        {
            "doubleSided" : true,
            "name" : "wood",
            "pbrMetallicRoughness" : {
                "baseColorFactor" : [
                    0.0699782595038414,
                    0.03657567873597145,
                    0.039095643907785416,
                    1
                ],
                "metallicFactor" : 0,
                "roughnessFactor" : 0.75
            }
        }
    ],
    "meshes" : [
        {
            "name" : "Cube.015",
            "primitives" : [
                {
                    "attributes" : {
                        "POSITION" : 0,
                        "NORMAL" : 1,
                        "TEXCOORD_0" : 2
                    },
                    "indices" : 3,
                    "material" : 0
                },
                {
                    "attributes" : {
                        "POSITION" : 4,
                        "NORMAL" : 5,
                        "TEXCOORD_0" : 6
                    },
                    "indices" : 7,
                    "material" : 1
                },
                {
                    "attributes" : {
                        "POSITION" : 8,
                        "NORMAL" : 9,
                        "TEXCOORD_0" : 10
                    },
                    "indices" : 11,
                    "material" : 2
                }
            ]
        }
    ],
    "textures" : [
        {
            "sampler" : 0,
            "source" : 0
        }
    ],
    "images" : [
        {
            "bufferView" : 8,
            "mimeType" : "image/png",
            "name" : "\u6e05\u51c9\u4ead\u5899\u7816"
        }
    ],
    "accessors" : [
        {
            "bufferView" : 0,
            "componentType" : 5126,
            "count" : 168,
            "max" : [
                5.050000190734863,
                0.20000016689300537,
                0.05000000074505806
            ],
            "min" : [
                -5.050000190734863,
                -5.960465188081798e-08,
                -5.550000190734863
            ],
            "type" : "VEC3"
        },
        {
            "bufferView" : 1,
            "componentType" : 5126,
            "count" : 168,
            "type" : "VEC3"
        },
        {
            "bufferView" : 2,
            "componentType" : 5126,
            "count" : 168,
            "type" : "VEC2"
        },
        {
            "bufferView" : 3,
            "componentType" : 5123,
            "count" : 252,
            "type" : "SCALAR"
        },
        {
            "bufferView" : 4,
            "componentType" : 5126,
            "count" : 604,
            "max" : [
                5.050000190734863,
                2.5,
                0.05000000074505806
            ],
            "min" : [
                -5.050000190734863,
                0.19999994337558746,
                -5.550000190734863
            ],
            "type" : "VEC3"
        },
        {
            "bufferView" : 5,
            "componentType" : 5126,
            "count" : 604,
            "type" : "VEC3"
        },
        {
            "bufferView" : 6,
            "componentType" : 5126,
            "count" : 604,
            "type" : "VEC2"
        },
        {
            "bufferView" : 7,
            "componentType" : 5123,
            "count" : 1002,
            "type" : "SCALAR"
        },
        {
            "bufferView" : 9,
            "componentType" : 5126,
            "count" : 256,
            "max" : [
                5.364144802093506,
                3.1493794918060303,
                0.3644023537635803
            ],
            "min" : [
                -5.364144802093506,
                2.5,
                -5.864144802093506
            ],
            "type" : "VEC3"
        },
        {
            "bufferView" : 10,
            "componentType" : 5126,
            "count" : 256,
            "type" : "VEC3"
        },
        {
            "bufferView" : 11,
            "componentType" : 5126,
            "count" : 256,
            "type" : "VEC2"
        },
        {
            "bufferView" : 12,
            "componentType" : 5123,
            "count" : 450,
            "type" : "SCALAR"
        }
    ],
    "bufferViews" : [
        {
            "buffer" : 0,
            "byteLength" : 2016,
            "byteOffset" : 0
        },
        {
            "buffer" : 0,
            "byteLength" : 2016,
            "byteOffset" : 2016
        },
        {
            "buffer" : 0,
            "byteLength" : 1344,
            "byteOffset" : 4032
        },
        {
            "buffer" : 0,
            "byteLength" : 504,
            "byteOffset" : 5376
        },
        {
            "buffer" : 0,
            "byteLength" : 7248,
            "byteOffset" : 5880
        },
        {
            "buffer" : 0,
            "byteLength" : 7248,
            "byteOffset" : 13128
        },
        {
            "buffer" : 0,
            "byteLength" : 4832,
            "byteOffset" : 20376
        },
        {
            "buffer" : 0,
            "byteLength" : 2004,
            "byteOffset" : 25208
        },
        {
            "buffer" : 0,
            "byteLength" : 516545,
            "byteOffset" : 27212
        },
        {
            "buffer" : 0,
            "byteLength" : 3072,
            "byteOffset" : 543760
        },
        {
            "buffer" : 0,
            "byteLength" : 3072,
            "byteOffset" : 546832
        },
        {
            "buffer" : 0,
            "byteLength" : 2048,
            "byteOffset" : 549904
        },
        {
            "buffer" : 0,
            "byteLength" : 900,
            "byteOffset" : 551952
        }
    ],
    "samplers" : [
        {
            "magFilter" : 9729,
            "minFilter" : 9987
        }
    ],
    "buffers" : [
        {
            "byteLength" : 552852,
            "uri" : "data:application/octet-stream;base64,"
        }
    ]
}
