{
  "asset": {
    "generator": "Khronos glTF Blender I/O v1.6.16",
    "version": "2.0"
  },
  "scene": 0,
  "scenes": [
    {
      "name": "Scene",
      "nodes": [
        0
      ]
    }
  ],
  "nodes": [
    {
      "mesh": 0,
      "name": "Cone"
    }
  ],
  "materials": [
    {
      "doubleSided": true,
      "emissiveFactor": [
        0.712349534034729,
        0.5796012878417969,
        0.036275796592235565
      ],
      "name": "Material",
      "pbrMetallicRoughness": {
        "baseColorFactor": [
          0.8000000715255737,
          0.5999497175216675,
          0,
          1
        ],
        "metallicFactor": 0,
        "roughnessFactor": 0.4000000059604645
      }
    }
  ],
  "meshes": [
    {
      "name": "Cone",
      "primitives": [
        {
          "attributes": {
            "POSITION": 0,
            "NORMAL": 1,
            "TEXCOORD_0": 2
          },
          "indices": 3,
          "material": 0
        }
      ]
    }
  ],
  "accessors": [
    {
      "bufferView": 0,
      "componentType": 5126,
      "count": 70,
      "max": [
        0.09510564804077148,
        0.02020922675728798,
        0.08090174198150635
      ],
      "min": [
        -0.09510564804077148,
        -0.02020922675728798,
        -0.09999996423721313
      ],
      "type": "VEC3"
    },
    {
      "bufferView": 1,
      "componentType": 5126,
      "count": 70,
      "type": "VEC3"
    },
    {
      "bufferView": 2,
      "componentType": 5126,
      "count": 70,
      "type": "VEC2"
    },
    {
      "bufferView": 3,
      "componentType": 5123,
      "count": 84,
      "type": "SCALAR"
    }
  ],
  "bufferViews": [
    {
      "buffer": 0,
      "byteLength": 840,
      "byteOffset": 0
    },
    {
      "buffer": 0,
      "byteLength": 840,
      "byteOffset": 840
    },
    {
      "buffer": 0,
      "byteLength": 560,
      "byteOffset": 1680
    },
    {
      "buffer": 0,
      "byteLength": 168,
      "byteOffset": 2240
    }
  ],
  "buffers": [
    {
      "uri": "star_data.bin",
      "byteLength": 2408
    }
  ]
}